<svg width="700" height="450" viewBox="0 0 700 450" xmlns="http://www.w3.org/2000/svg">
  <rect x="0" y="0" width="700" height="450" fill="#f8f9fa" stroke="#dee2e6" />
  <text x="20" y="40" font-family="sans-serif" font-size="24" fill="#adb5bd" font-weight="bold">BODEGA: ESTATUS DE CORTINAS</text>

  <g transform="translate(30, 80)">
    <g id="row1">
      <rect id="R01" x="0" y="0" width="22" height="50" fill="#6c757d" stroke="#343a40" /><text x="0" y="65" font-family="sans-serif" font-size="9">R01</text>
      <rect id="R02" x="32" y="0" width="22" height="50" fill="#6c757d" stroke="#343a40" /><text x="32" y="65" font-family="sans-serif" font-size="9">R02</text>
      <rect id="R03" x="64" y="0" width="22" height="50" fill="#6c757d" stroke="#343a40" /><text x="64" y="65" font-family="sans-serif" font-size="9">R03</text>
      <rect id="R04" x="96" y="0" width="22" height="50" fill="#6c757d" stroke="#343a40" /><text x="96" y="65" font-family="sans-serif" font-size="9">R04</text>
      <rect id="R05" x="128" y="0" width="22" height="50" fill="#6c757d" stroke="#343a40" /><text x="128" y="65" font-family="sans-serif" font-size="9">R05</text>
      <rect id="R06" x="160" y="0" width="22" height="50" fill="#6c757d" stroke="#343a40" /><text x="160" y="65" font-family="sans-serif" font-size="9">R06</text>
      <rect id="R07" x="192" y="0" width="22" height="50" fill="#6c757d" stroke="#343a40" /><text x="192" y="65" font-family="sans-serif" font-size="9">R07</text>
      <rect id="R08" x="224" y="0" width="22" height="50" fill="#6c757d" stroke="#343a40" /><text x="224" y="65" font-family="sans-serif" font-size="9">R08</text>
      <rect id="R09" x="256" y="0" width="22" height="50" fill="#6c757d" stroke="#343a40" /><text x="256" y="65" font-family="sans-serif" font-size="9">R09</text>
      <rect id="R10" x="288" y="0" width="22" height="50" fill="#6c757d" stroke="#343a40" /><text x="288" y="65" font-family="sans-serif" font-size="9">R10</text>
      <rect id="R11" x="320" y="0" width="22" height="50" fill="#6c757d" stroke="#343a40" /><text x="320" y="65" font-family="sans-serif" font-size="9">R11</text>
      <rect id="R12" x="352" y="0" width="22" height="50" fill="#6c757d" stroke="#343a40" /><text x="352" y="65" font-family="sans-serif" font-size="9">R12</text>
      <rect id="R13" x="384" y="0" width="22" height="50" fill="#6c757d" stroke="#343a40" /><text x="384" y="65" font-family="sans-serif" font-size="9">R13</text>
      <rect id="R14" x="416" y="0" width="22" height="50" fill="#6c757d" stroke="#343a40" /><text x="416" y="65" font-family="sans-serif" font-size="9">R14</text>
      <rect id="R15" x="448" y="0" width="22" height="50" fill="#6c757d" stroke="#343a40" /><text x="448" y="65" font-family="sans-serif" font-size="9">R15</text>
      <rect id="R16" x="480" y="0" width="22" height="50" fill="#6c757d" stroke="#343a40" /><text x="480" y="65" font-family="sans-serif" font-size="9">R16</text>
      <rect id="R17" x="512" y="0" width="22" height="50" fill="#6c757d" stroke="#343a40" /><text x="512" y="65" font-family="sans-serif" font-size="9">R17</text>
      <rect id="R18" x="544" y="0" width="22" height="50" fill="#6c757d" stroke="#343a40" /><text x="544" y="65" font-family="sans-serif" font-size="9">R18</text>
      <rect id="R19" x="576" y="0" width="22" height="50" fill="#6c757d" stroke="#343a40" /><text x="576" y="65" font-family="sans-serif" font-size="9">R19</text>
      <rect id="R20" x="608" y="0" width="22" height="50" fill="#6c757d" stroke="#343a40" /><text x="608" y="65" font-family="sans-serif" font-size="9">R20</text>
    </g>

    <g id="row2" transform="translate(0, 80)">
      <rect id="R21" x="0" y="0" width="22" height="50" fill="#6c757d" stroke="#343a40" /><text x="0" y="65" font-family="sans-serif" font-size="9">R21</text>
      <rect id="R22" x="32" y="0" width="22" height="50" fill="#6c757d" stroke="#343a40" /><text x="32" y="65" font-family="sans-serif" font-size="9">R22</text>
      <rect id="R23" x="64" y="0" width="22" height="50" fill="#6c757d" stroke="#343a40" /><text x="64" y="65" font-family="sans-serif" font-size="9">R23</text>
      <rect id="R24" x="96" y="0" width="22" height="50" fill="#6c757d" stroke="#343a40" /><text x="96" y="65" font-family="sans-serif" font-size="9">R24</text>
      <rect id="R25" x="128" y="0" width="22" height="50" fill="#6c757d" stroke="#343a40" /><text x="128" y="65" font-family="sans-serif" font-size="9">R25</text>
      <rect id="R26" x="160" y="0" width="22" height="50" fill="#6c757d" stroke="#343a40" /><text x="160" y="65" font-family="sans-serif" font-size="9">R26</text>
      <rect id="R27" x="192" y="0" width="22" height="50" fill="#6c757d" stroke="#343a40" /><text x="192" y="65" font-family="sans-serif" font-size="9">R27</text>
      <rect id="R28" x="224" y="0" width="22" height="50" fill="#6c757d" stroke="#343a40" /><text x="224" y="65" font-family="sans-serif" font-size="9">R28</text>
      <rect id="R29" x="256" y="0" width="22" height="50" fill="#6c757d" stroke="#343a40" /><text x="256" y="65" font-family="sans-serif" font-size="9">R29</text>
      <rect id="R30" x="288" y="0" width="22" height="50" fill="#6c757d" stroke="#343a40" /><text x="288" y="65" font-family="sans-serif" font-size="9">R30</text>
      <rect id="R31" x="320" y="0" width="22" height="50" fill="#6c757d" stroke="#343a40" /><text x="320" y="65" font-family="sans-serif" font-size="9">R31</text>
      <rect id="R32" x="352" y="0" width="22" height="50" fill="#6c757d" stroke="#343a40" /><text x="352" y="65" font-family="sans-serif" font-size="9">R32</text>
      <rect id="R33" x="384" y="0" width="22" height="50" fill="#6c757d" stroke="#343a40" /><text x="384" y="65" font-family="sans-serif" font-size="9">R33</text>
      <rect id="R34" x="416" y="0" width="22" height="50" fill="#6c757d" stroke="#343a40" /><text x="416" y="65" font-family="sans-serif" font-size="9">R34</text>
      <rect id="R35" x="448" y="0" width="22" height="50" fill="#6c757d" stroke="#343a40" /><text x="448" y="65" font-family="sans-serif" font-size="9">R35</text>
      <rect id="R36" x="480" y="0" width="22" height="50" fill="#6c757d" stroke="#343a40" /><text x="480" y="65" font-family="sans-serif" font-size="9">R36</text>
      <rect id="R37" x="512" y="0" width="22" height="50" fill="#6c757d" stroke="#343a40" /><text x="512" y="65" font-family="sans-serif" font-size="9">R37</text>
      <rect id="R38" x="544" y="0" width="22" height="50" fill="#6c757d" stroke="#343a40" /><text x="544" y="65" font-family="sans-serif" font-size="9">R38</text>
      <rect id="R39" x="576" y="0" width="22" height="50" fill="#6c757d" stroke="#343a40" /><text x="576" y="65" font-family="sans-serif" font-size="9">R39</text>
      <rect id="R40" x="608" y="0" width="22" height="50" fill="#6c757d" stroke="#343a40" /><text x="608" y="65" font-family="sans-serif" font-size="9">R40</text>
    </g>

    <g id="row3" transform="translate(0, 160)">
      <rect id="R41" x="0" y="0" width="22" height="50" fill="#6c757d" stroke="#343a40" /><text x="0" y="65" font-family="sans-serif" font-size="9">R41</text>
      <rect id="R42" x="32" y="0" width="22" height="50" fill="#6c757d" stroke="#343a40" /><text x="32" y="65" font-family="sans-serif" font-size="9">R42</text>
      <rect id="R43" x="64" y="0" width="22" height="50" fill="#6c757d" stroke="#343a40" /><text x="64" y="65" font-family="sans-serif" font-size="9">R43</text>
      <rect id="R44" x="96" y="0" width="22" height="50" fill="#6c757d" stroke="#343a40" /><text x="96" y="65" font-family="sans-serif" font-size="9">R44</text>
      <rect id="R45" x="128" y="0" width="22" height="50" fill="#6c757d" stroke="#343a40" /><text x="128" y="65" font-family="sans-serif" font-size="9">R45</text>
      <rect id="R46" x="160" y="0" width="22" height="50" fill="#6c757d" stroke="#343a40" /><text x="160" y="65" font-family="sans-serif" font-size="9">R46</text>
      <rect id="R47" x="192" y="0" width="22" height="50" fill="#6c757d" stroke="#343a40" /><text x="192" y="65" font-family="sans-serif" font-size="9">R47</text>
      <rect id="R48" x="224" y="0" width="22" height="50" fill="#6c757d" stroke="#343a40" /><text x="224" y="65" font-family="sans-serif" font-size="9">R48</text>
      <rect id="R49" x="256" y="0" width="22" height="50" fill="#6c757d" stroke="#343a40" /><text x="256" y="65" font-family="sans-serif" font-size="9">R49</text>
      <rect id="R50" x="288" y="0" width="22" height="50" fill="#6c757d" stroke="#343a40" /><text x="288" y="65" font-family="sans-serif" font-size="9">R50</text>
      <rect id="R51" x="320" y="0" width="22" height="50" fill="#6c757d" stroke="#343a40" /><text x="320" y="65" font-family="sans-serif" font-size="9">R51</text>
      <rect id="R52" x="352" y="0" width="22" height="50" fill="#6c757d" stroke="#343a40" /><text x="352" y="65" font-family="sans-serif" font-size="9">R52</text>
      <rect id="R53" x="384" y="0" width="22" height="50" fill="#6c757d" stroke="#343a40" /><text x="384" y="65" font-family="sans-serif" font-size="9">R53</text>
      <rect id="R54" x="416" y="0" width="22" height="50" fill="#6c757d" stroke="#343a40" /><text x="416" y="65" font-family="sans-serif" font-size="9">R54</text>
      <rect id="R55" x="448" y="0" width="22" height="50" fill="#6c757d" stroke="#343a40" /><text x="448" y="65" font-family="sans-serif" font-size="9">R55</text>
      <rect id="R56" x="480" y="0" width="22" height="50" fill="#6c757d" stroke="#343a40" /><text x="480" y="65" font-family="sans-serif" font-size="9">R56</text>
      <rect id="R57" x="512" y="0" width="22" height="50" fill="#6c757d" stroke="#343a40" /><text x="512" y="65" font-family="sans-serif" font-size="9">R57</text>
      <rect id="R58" x="544" y="0" width="22" height="50" fill="#6c757d" stroke="#343a40" /><text x="544" y="65" font-family="sans-serif" font-size="9">R58</text>
      <rect id="R59" x="576" y="0" width="22" height="50" fill="#6c757d" stroke="#343a40" /><text x="576" y="65" font-family="sans-serif" font-size="9">R59</text>
      <rect id="R60" x="608" y="0" width="22" height="50" fill="#6c757d" stroke="#343a40" /><text x="608" y="65" font-family="sans-serif" font-size="9">R60</text>
    </g>

    <g id="row4" transform="translate(0, 240)">
      <rect id="R61" x="0" y="0" width="22" height="50" fill="#6c757d" stroke="#343a40" /><text x="0" y="65" font-family="sans-serif" font-size="9">R61</text>
      <rect id="R62" x="32" y="0" width="22" height="50" fill="#6c757d" stroke="#343a40" /><text x="32" y="65" font-family="sans-serif" font-size="9">R62</text>
      <rect id="R63" x="64" y="0" width="22" height="50" fill="#6c757d" stroke="#343a40" /><text x="64" y="65" font-family="sans-serif" font-size="9">R63</text>
      <rect id="R64" x="96" y="0" width="22" height="50" fill="#6c757d" stroke="#343a40" /><text x="96" y="65" font-family="sans-serif" font-size="9">R64</text>
      <rect id="R65" x="128" y="0" width="22" height="50" fill="#6c757d" stroke="#343a40" /><text x="128" y="65" font-family="sans-serif" font-size="9">R65</text>
      <rect id="R66" x="160" y="0" width="22" height="50" fill="#6c757d" stroke="#343a40" /><text x="160" y="65" font-family="sans-serif" font-size="9">R66</text>
      <rect id="R67" x="192" y="0" width="22" height="50" fill="#6c757d" stroke="#343a40" /><text x="192" y="65" font-family="sans-serif" font-size="9">R67</text>
      <rect id="R68" x="224" y="0" width="22" height="50" fill="#6c757d" stroke="#343a40" /><text x="224" y="65" font-family="sans-serif" font-size="9">R68</text>
      <rect id="R69" x="256" y="0" width="22" height="50" fill="#6c757d" stroke="#343a40" /><text x="256" y="65" font-family="sans-serif" font-size="9">R69</text>
      <rect id="R70" x="288" y="0" width="22" height="50" fill="#6c757d" stroke="#343a40" /><text x="288" y="65" font-family="sans-serif" font-size="9">R70</text>
      <rect id="R71" x="320" y="0" width="22" height="50" fill="#6c757d" stroke="#343a40" /><text x="320" y="65" font-family="sans-serif" font-size="9">R71</text>
      <rect id="R72" x="352" y="0" width="22" height="50" fill="#6c757d" stroke="#343a40" /><text x="352" y="65" font-family="sans-serif" font-size="9">R72</text>
      <rect id="R73" x="384" y="0" width="22" height="50" fill="#6c757d" stroke="#343a40" /><text x="384" y="65" font-family="sans-serif" font-size="9">R73</text>
      <rect id="R74" x="416" y="0" width="22" height="50" fill="#6c757d" stroke="#343a40" /><text x="416" y="65" font-family="sans-serif" font-size="9">R74</text>
      <rect id="R75" x="448" y="0" width="22" height="50" fill="#6c757d" stroke="#343a40" /><text x="448" y="65" font-family="sans-serif" font-size="9">R75</text>
      <rect id="R76" x="480" y="0" width="22" height="50" fill="#6c757d" stroke="#343a40" /><text x="480" y="65" font-family="sans-serif" font-size="9">R76</text>
      <rect id="R77" x="512" y="0" width="22" height="50" fill="#6c757d" stroke="#343a40" /><text x="512" y="65" font-family="sans-serif" font-size="9">R77</text>
      <rect id="R78" x="544" y="0" width="22" height="50" fill="#6c757d" stroke="#343a40" /><text x="544" y="65" font-family="sans-serif" font-size="9">R78</text>
      <rect id="R79" x="576" y="0" width="22" height="50" fill="#6c757d" stroke="#343a40" /><text x="576" y="65" font-family="sans-serif" font-size="9">R79</text>
      <rect id="R80" x="608" y="0" width="22" height="50" fill="#6c757d" stroke="#343a40" /><text x="608" y="65" font-family="sans-serif" font-size="9">R80</text>
    </g>
  </g>
</svg>
